<svg width="45" height="46" viewBox="0 0 45 46" fill="none" xmlns="http://www.w3.org/2000/svg">
<path fill-rule="evenodd" clip-rule="evenodd" d="M36.2198 0.50856C32.9405 -0.868388 29.104 0.646936 27.6508 3.89313L24.2494 11.4909L13.8051 5.46939C9.51394 2.99539 3.93257 4.41063 1.33874 8.63041C-2.87867 15.4915 3.52415 23.7662 11.4105 21.6466L20.8372 19.113L14.7724 32.6605C12.7499 37.1782 14.81 42.3941 19.3738 44.3104C26.8689 47.4575 34.5593 39.8952 31.3559 32.528L26.9238 22.3347C26.3604 21.0391 26.2479 19.6871 26.4985 18.4233C29.6079 19.1072 32.0175 21.8402 31.9202 25.2461L31.8684 27.0601C31.6805 33.6398 40.5628 36.0693 44.0522 30.3926C45.9282 27.3405 44.933 23.4158 41.8293 21.6264L29.0918 14.2827C30.0847 13.5236 31.3048 13.0145 32.6756 12.8811L34.1262 12.7398C40.8291 12.0871 42.369 3.09058 36.2198 0.50856Z" fill="url(#paint0_linear_1879_473)"/>
<defs>
<linearGradient id="paint0_linear_1879_473" x1="45.0581" y1="2.18604" x2="3.64731" y2="22.489" gradientUnits="userSpaceOnUse">
<stop stop-color="#FFB800"/>
<stop offset="0.5224" stop-color="#F6DAAF"/>
<stop offset="1" stop-color="#FF932F"/>
</linearGradient>
</defs>
</svg>
